# File created by Blade
# Date/Time:  Thu Jan 22 16:36:34 2015
#---------------------------------------------------------
:version 1.10
:name HOM
:units
  mass 1.0
  length 1.000000
  angle deg
:documentation
     Acclaim Skeleton File
:root
   axis xyz
   order TX TY TZ RX RY RZ
   position 0.000000 0.000000 0.000000
   orientation 0 0 0
:bonedata
   begin
      id 1
      name RightUpLeg_dum
      direction -1.000000 0.000000 0.000000
      length 3.766986
      axis 0.0 0.0 0.0 xyz
   end
   begin
      id 2
      name LeftUpLeg_dum
      direction 1.000000 0.000000 0.000000
      length 3.766986
      axis 0.0 0.0 0.0 xyz
   end
   begin
      id 3
      name Spine_dum
      direction 0.000000 1.000000 0.000000
      length 7.779697
      axis 0.0 0.0 0.0 xyz
   end
   begin
      id 4
      name RightUpLeg
      direction 0.000000 -1.000000 0.000000
      length 18.017682
      axis 0.0 0.0 0.0 xyz
      dof rx ry rz
   end
   begin
      id 5
      name RightLeg
      direction 0.000000 -1.000000 0.000000
      length 16.881075
      axis 0.0 0.0 0.0 xyz
      dof rx ry rz
   end
   begin
      id 6
      name RightFoot
      direction 0.000000 -0.258819 0.965926
      length 5.770812
      axis 15.0 0.0 0.0 xyz
      dof rx ry rz
   end
   begin
      id 7
      name RightToeBase
      direction 0.000000 0.000000 1.000000
      length 2.952750
      axis 0.0 0.0 0.0 xyz
      dof rx ry rz
   end
   begin
      id 8
      name LeftUpLeg
      direction 0.000000 -1.000000 0.000000
      length 18.017682
      axis 0.0 0.0 0.0 xyz
      dof rx ry rz
   end
   begin
      id 9
      name LeftLeg
      direction 0.000000 -1.000000 0.000000
      length 16.881075
      axis 0.0 0.0 0.0 xyz
      dof rx ry rz
   end
   begin
      id 10
      name LeftFoot
      direction 0.000000 -0.258819 0.965926
      length 5.770812
      axis 15.0 0.0 0.0 xyz
      dof rx ry rz
   end
   begin
      id 11
      name LeftToeBase
      direction 0.000000 0.000000 1.000000
      length 2.952750
      axis 0.0 0.0 0.0 xyz
      dof rx ry rz
   end
   begin
      id 12
      name Spine
      direction 0.000000 1.000000 0.000000
      length 0.000000
      axis 0.0 0.0 0.0 xyz
      dof rx ry rz
   end
   begin
      id 13
      name Spine_dum1
      direction 0.000000 1.000000 0.000000
      length 10.941760
      axis 0.0 0.0 0.0 xyz
   end
   begin
      id 14
      name Spine_dum2
      direction 0.000000 1.000000 0.000000
      length 10.941760
      axis 0.0 0.0 0.0 xyz
   end
   begin
      id 15
      name Spine_dum3
      direction 0.000000 1.000000 0.000000
      length 16.646042
      axis 0.0 0.0 0.0 xyz
   end
   begin
      id 16
      name RightShoulder
      direction -1.000000 0.000000 0.000000
      length 7.708937
      axis 0.0 0.0 90.0 xyz
      dof rx ry rz
   end
   begin
      id 17
      name RightArm
      direction -1.000000 0.000000 0.000000
      length 11.521345
      axis 0.0 0.0 90.0 xyz
      dof rx ry rz
   end
   begin
      id 18
      name RightForeArm
      direction -1.000000 0.000000 0.000000
      length 10.175898
      axis 0.0 0.0 90.0 xyz
      dof ry rz rx
   end
   begin
      id 19
      name RightHand
      direction -1.000000 0.000000 0.000000
      length 0.000000
      axis 0.0 0.0 90.0 xyz
      dof rx ry rz
   end
   begin
      id 20
      name RightHand_dum1
      direction -1.000000 0.000000 0.000000
      length 3.937000
      axis 0.0 0.0 90.0 xyz
   end
   begin
      id 21
      name RightHand_dum2
      direction 0.000000 0.000000 0.000000
      length 0.000000
      axis 0.0 0.0 90.0 xyz
   end
   begin
      id 22
      name RightHandThumb1
      direction 0.000000 0.000000 1.000000
      length 3.937000
      axis 0.0 0.0 90.0 xyz
      dof rx rz ry
   end
   begin
      id 23
      name LeftShoulder
      direction 1.000000 0.000000 0.000000
      length 7.708937
      axis 0.0 0.0 -90.0 xyz
      dof rx ry rz
   end
   begin
      id 24
      name LeftArm
      direction 1.000000 0.000000 0.000000
      length 11.521345
      axis 0.0 0.0 -90.0 xyz
      dof rx ry rz
   end
   begin
      id 25
      name LeftForeArm
      direction 1.000000 0.000000 0.000000
      length 10.175898
      axis 0.0 0.0 -90.0 xyz
      dof ry rz rx
   end
   begin
      id 26
      name LeftHand
      direction 1.000000 0.000000 0.000000
      length 0.000000
      axis 0.0 0.0 -90.0 xyz
      dof rx ry rz
   end
   begin
      id 27
      name LeftHand_dum1
      direction 1.000000 0.000000 0.000000
      length 3.937000
      axis 0.0 0.0 -90.0 xyz
   end
   begin
      id 28
      name LeftHand_dum2
      direction 0.000000 0.000000 0.000000
      length 0.000000
      axis 0.0 0.0 -90.0 xyz
   end
   begin
      id 29
      name LeftHandThumb1
      direction 0.000000 0.000000 1.000000
      length 3.937000
      axis 0.0 0.0 -90.0 xyz
      dof rx rz ry
   end
   begin
      id 30
      name Head
      direction 0.000000 1.000000 0.000000
      length 4.527550
      axis 0.0 0.0 0.0 xyz
      dof rx ry rz
   end
:hierarchy
   begin
      root RightUpLeg_dum LeftUpLeg_dum Spine_dum
      RightUpLeg_dum RightUpLeg
      LeftUpLeg_dum LeftUpLeg
      Spine_dum Spine
      RightUpLeg RightLeg
      RightLeg RightFoot
      RightFoot RightToeBase
      LeftUpLeg LeftLeg
      LeftLeg LeftFoot
      LeftFoot LeftToeBase
      Spine Spine_dum1 Spine_dum2 Spine_dum3
      Spine_dum1 RightShoulder
      Spine_dum2 LeftShoulder
      Spine_dum3 Head
      RightShoulder RightArm
      RightArm RightForeArm
      RightForeArm RightHand
      RightHand RightHand_dum1 RightHand_dum2
      RightHand_dum2 RightHandThumb1
      LeftShoulder LeftArm
      LeftArm LeftForeArm
      LeftForeArm LeftHand
      LeftHand LeftHand_dum1 LeftHand_dum2
      LeftHand_dum2 LeftHandThumb1
   end

# File created by Blade
# Date/Time:  Thu Jan 22 16:36:26 2015
# Frame Rate: 120.000 fps
#------------------------------------------------------
:FULLY-SPECIFIED
:DEGREES
1
root 0.366634 37.171851 3.326976 -1.664459 -0.499129 1.301837
RightUpLeg 10.101888 -2.043824 -3.639705
RightLeg -5.528744 -0.000000 0.000000
RightFoot -11.296295 -14.958003 17.449186
RightToeBase 14.003102 -0.000000 -0.000000
LeftUpLeg 8.925363 0.332355 2.864615
LeftLeg -2.907095 -0.000000 0.000000
LeftFoot -8.979812 13.136730 -19.247773
LeftToeBase 9.166250 -0.000000 -0.000000
Spine 2.406996 -2.670630 -1.942876
RightShoulder -1.606476 -9.143696 -28.445742
RightArm 7.155090 25.240809 26.450646
RightForeArm 5.335389 -0.000000 15.048486
RightHand 0.912689 -0.000000 8.721912
RightHandThumb1 -24.326973 -0.000000 -32.862282
LeftShoulder -19.123434 25.215713 18.016009
LeftArm 41.285495 -51.488058 -47.669604
LeftForeArm 43.866935 -0.000000 3.197229
LeftHand -14.185571 -0.000000 -11.866041
LeftHandThumb1 -26.253704 0.000000 33.147579
Head 1.344634 10.276717 4.198037
2
root 0.366579 37.171450 3.328904 -1.669181 -0.507316 1.297245
RightUpLeg 10.109747 -2.039784 -3.635975
RightLeg -5.531099 -0.000000 0.000000
RightFoot -11.283227 -14.959692 17.418587
RightToeBase 14.017650 -0.000000 -0.000000
LeftUpLeg 8.939144 0.337880 2.868749
LeftLeg -2.916994 -0.000000 0.000000
LeftFoot -8.986164 13.146552 -19.235723
LeftToeBase 9.193266 -0.000000 -0.000000
Spine 2.404332 -2.666076 -1.936738
RightShoulder -1.610579 -9.204461 -28.445813
RightArm 7.206321 25.278440 26.465435
RightForeArm 5.344926 -0.000000 15.052960
RightHand 0.917884 0.000000 8.721971
RightHandThumb1 -24.326973 -0.000000 -32.862282
LeftShoulder -19.121524 25.231529 17.996024
LeftArm 41.303335 -51.497969 -47.655646
LeftForeArm 43.863949 -0.000000 3.198869
LeftHand -14.088166 -0.000000 -11.884697
LeftHandThumb1 -26.253704 0.000000 33.147579
Head 1.386583 10.349908 4.238130
3
root 0.365388 37.171018 3.330640 -1.669918 -0.510568 1.298715
RightUpLeg 10.114652 -2.038561 -3.634494
RightLeg -5.535260 -0.000000 0.000000
RightFoot -11.295628 -14.963696 17.430959
RightToeBase 13.978056 -0.000000 -0.000000
LeftUpLeg 8.945609 0.345227 2.870004
LeftLeg -2.922091 -0.000000 0.000000
LeftFoot -8.982236 13.141359 -19.234573
LeftToeBase 9.179097 -0.000000 -0.000000
Spine 2.398091 -2.665815 -1.954389
RightShoulder -1.599084 -9.175255 -28.435048
RightArm 7.189068 25.275870 26.467312
RightForeArm 5.316463 -0.000000 15.072576
RightHand 0.923638 -0.000000 8.714623
RightHandThumb1 -24.326973 -0.000000 -32.862282
LeftShoulder -19.120346 25.234202 18.023915
LeftArm 41.328189 -51.502834 -47.699296
LeftForeArm 43.878069 -0.000000 3.226613
LeftHand -14.107615 -0.000000 -11.916656
LeftHandThumb1 -26.253704 0.000000 33.147579
Head 1.417737 10.252354 4.227063
4
root 0.364389 37.170470 3.332305 -1.673469 -0.515328 1.297094
RightUpLeg 10.119942 -2.045331 -3.633195
RightLeg -5.535423 -0.000000 0.000000
RightFoot -11.300021 -14.944470 17.425599
RightToeBase 14.032585 -0.000000 -0.000000
LeftUpLeg 8.953570 0.350664 2.874539
LeftLeg -2.923295 -0.000000 0.000000
LeftFoot -8.986959 13.131133 -19.235365
LeftToeBase 9.159071 -0.000000 -0.000000
Spine 2.394692 -2.669337 -1.960568
RightShoulder -1.587506 -9.173644 -28.436672
RightArm 7.193820 25.272037 26.475580
RightForeArm 5.305490 -0.000000 15.086616
RightHand 0.937183 -0.000000 8.729409
RightHandThumb1 -24.326973 -0.000000 -32.862282
LeftShoulder -19.115522 25.243060 18.020771
LeftArm 41.333142 -51.516888 -47.686213
LeftForeArm 43.922087 -0.000000 3.231587
LeftHand -14.097942 -0.000000 -11.931699
LeftHandThumb1 -26.253704 0.000000 33.147579
Head 1.460186 10.238908 4.214259
5
root 0.364943 37.170064 3.333509 -1.672317 -0.516525 1.302054
RightUpLeg 10.118222 -2.048934 -3.639250
RightLeg -5.529491 -0.000000 0.000000
RightFoot -11.302164 -14.946014 17.414878
RightToeBase 14.018940 -0.000000 -0.000000
LeftUpLeg 8.957241 0.340973 2.866858
LeftLeg -2.928194 -0.000000 0.000000
LeftFoot -9.000663 13.146228 -19.255598
LeftToeBase 9.184761 -0.000000 -0.000000
Spine 2.388735 -2.671499 -1.968688
RightShoulder -1.592343 -9.202867 -28.425679
RightArm 7.227730 25.271842 26.468974
RightForeArm 5.317759 -0.000000 15.097321
RightHand 0.927723 -0.000000 8.673701
RightHandThumb1 -24.326973 -0.000000 -32.862282
LeftShoulder -19.111891 25.240995 18.018847
LeftArm 41.329482 -51.514886 -47.671554
LeftForeArm 43.914380 -0.000000 3.250608
LeftHand -14.116255 -0.000000 -11.942409
LeftHandThumb1 -26.253704 0.000000 33.147579
Head 1.493988 10.233263 4.237864
6
root 0.364285 37.169711 3.334759 -1.676242 -0.515228 1.301383
RightUpLeg 10.123170 -2.043931 -3.638247
RightLeg -5.527453 -0.000000 0.000000
RightFoot -11.307356 -14.948267 17.417878
RightToeBase 13.990621 -0.000000 -0.000000
LeftUpLeg 8.963024 0.345561 2.869236
LeftLeg -2.928300 -0.000000 0.000000
LeftFoot -8.993594 13.139697 -19.240677
LeftToeBase 9.153259 -0.000000 -0.000000
Spine 2.388968 -2.671019 -1.976017
RightShoulder -1.591756 -9.225081 -28.418196
RightArm 7.247579 25.296514 26.478605
RightForeArm 5.302571 -0.000000 15.109872
RightHand 0.920671 0.000000 8.653560
RightHandThumb1 -24.326973 -0.000000 -32.862282
LeftShoulder -19.101276 25.235682 18.030290
LeftArm 41.332239 -51.511519 -47.666226
LeftForeArm 43.920537 0.000000 3.258776
LeftHand -14.129999 0.000000 -11.938386
LeftHandThumb1 -26.253704 0.000000 33.147579
Head 1.526123 10.213371 4.230961
7
root 0.364456 37.169327 3.335758 -1.676841 -0.509018 1.299939
RightUpLeg 10.126314 -2.051370 -3.638389
RightLeg -5.525476 -0.000000 0.000000
RightFoot -11.313410 -14.938275 17.420178
RightToeBase 14.035237 -0.000000 -0.000000
LeftUpLeg 8.963366 0.337288 2.870545
LeftLeg -2.925904 -0.000000 0.000000
LeftFoot -9.003281 13.139296 -19.245017
LeftToeBase 9.183839 -0.000000 -0.000000
Spine 2.385286 -2.694844 -1.970975
RightShoulder -1.574077 -9.227184 -28.438293
RightArm 7.257982 25.304364 26.495372
RightForeArm 5.269987 -0.000000 15.128657
RightHand 0.920398 -0.000000 8.676423
RightHandThumb1 -24.326973 -0.000000 -32.862282
LeftShoulder -19.105230 25.250545 18.005881
LeftArm 41.318062 -51.511790 -47.623366
LeftForeArm 43.895631 -0.000000 3.263571
LeftHand -14.105918 -0.000000 -11.957160
LeftHandThumb1 -26.253704 0.000000 33.147579
Head 1.565435 10.298478 4.250380
8
root 0.363466 37.168889 3.336845 -1.686305 -0.511955 1.297835
RightUpLeg 10.138286 -2.032301 -3.633169
RightLeg -5.526702 -0.000000 0.000000
RightFoot -11.362284 -14.924573 17.494756
RightToeBase 14.131481 -0.000000 -0.000000
LeftUpLeg 8.971122 0.353583 2.875487
LeftLeg -2.916311 -0.000000 0.000000
LeftFoot -9.008203 13.124367 -19.238869
LeftToeBase 9.149119 -0.000000 -0.000000
Spine 2.397130 -2.690342 -1.981898
RightShoulder -1.574851 -9.229600 -28.429639
RightArm 7.262969 25.297964 26.499309
RightForeArm 5.269068 -0.000000 15.143868
RightHand 0.962079 -0.000000 8.659771
RightHandThumb1 -24.326973 -0.000000 -32.862282
LeftShoulder -19.105604 25.248398 18.026080
LeftArm 41.363859 -51.522550 -47.676540
LeftForeArm 43.946520 -0.000000 3.283363
LeftHand -14.148634 -0.000000 -11.922129
LeftHandThumb1 -26.253704 0.000000 33.147579
Head 1.584874 10.215192 4.227469
9
root 0.363177 37.168365 3.338454 -1.689175 -0.508140 1.300141
RightUpLeg 10.144733 -2.025869 -3.634182
RightLeg -5.527507 -0.000000 0.000000
RightFoot -11.322713 -14.956083 17.428194
RightToeBase 14.021213 -0.000000 -0.000000
LeftUpLeg 8.976508 0.353685 2.875770
LeftLeg -2.918427 -0.000000 0.000000
LeftFoot -9.009932 13.114387 -19.241980
LeftToeBase 9.172744 -0.000000 -0.000000
Spine 2.399053 -2.689484 -1.993287
RightShoulder -1.578158 -9.213858 -28.427932
RightArm 7.264066 25.271121 26.503601
RightForeArm 5.250523 0.000000 15.153121
RightHand 0.976161 -0.000000 8.624147
RightHandThumb1 -24.326973 -0.000000 -32.862282
LeftShoulder -19.106883 25.254170 18.036174
LeftArm 41.395342 -51.516852 -47.697891
LeftForeArm 43.951604 -0.000000 3.300646
LeftHand -14.141243 -0.000000 -11.942027
LeftHandThumb1 -26.253704 0.000000 33.147579
Head 1.602187 10.184057 4.228979
10
root 0.362498 37.167576 3.339289 -1.688866 -0.507560 1.296243
RightUpLeg 10.149080 -2.019734 -3.628764
RightLeg -5.532977 -0.000000 0.000000
RightFoot -11.330200 -14.964571 17.438184
RightToeBase 13.984735 -0.000000 -0.000000
LeftUpLeg 8.979481 0.355439 2.879340
LeftLeg -2.920722 -0.000000 0.000000
LeftFoot -9.016537 13.126084 -19.225320
LeftToeBase 9.172674 -0.000000 -0.000000
Spine 2.395875 -2.698781 -1.994078
RightShoulder -1.573423 -9.225345 -28.433431
RightArm 7.283874 25.270990 26.518993
RightForeArm 5.219275 -0.000000 15.174698
RightHand 0.926261 -0.000000 8.679020
RightHandThumb1 -24.326973 -0.000000 -32.862282
LeftShoulder -19.111269 25.279111 18.039917
LeftArm 41.421067 -51.518820 -47.721629
LeftForeArm 43.979342 -0.000000 3.319305
LeftHand -14.101400 -0.000000 -11.966989
LeftHandThumb1 -26.253704 0.000000 33.147579
Head 1.631010 10.196688 4.216391
11
root 0.362256 37.167277 3.340020 -1.691158 -0.501945 1.296277
RightUpLeg 10.150377 -2.019772 -3.627895
RightLeg -5.527480 -0.000000 0.000000
RightFoot -11.337059 -14.971507 17.419525
RightToeBase 13.975915 -0.000000 -0.000000
LeftUpLeg 8.974904 0.351216 2.879638
LeftLeg -2.907092 -0.000000 0.000000
LeftFoot -9.026296 13.118758 -19.232708
LeftToeBase 9.190596 -0.000000 -0.000000
Spine 2.400330 -2.714111 -1.997874
RightShoulder -1.575302 -9.249127 -28.433967
RightArm 7.320693 25.276835 26.530235
RightForeArm 5.232737 0.000000 15.186575
RightHand 0.932259 -0.000000 8.615740
RightHandThumb1 -24.326973 -0.000000 -32.862282
LeftShoulder -19.122926 25.296681 18.035633
LeftArm 41.466747 -51.531475 -47.763210
LeftForeArm 43.998589 -0.000000 3.333203
LeftHand -14.060353 -0.000000 -11.960875
LeftHandThumb1 -26.253704 0.000000 33.147579
Head 1.646167 10.206560 4.207646
12
root 0.362397 37.166639 3.341348 -1.691676 -0.490791 1.291426
RightUpLeg 10.156211 -2.023920 -3.623542
RightLeg -5.528935 -0.000000 0.000000
RightFoot -11.340274 -14.968257 17.435018
RightToeBase 14.059121 -0.000000 -0.000000
LeftUpLeg 8.974466 0.345872 2.884055
LeftLeg -2.901974 -0.000000 0.000000
LeftFoot -9.040054 13.110763 -19.240649
LeftToeBase 9.219682 -0.000000 -0.000000
Spine 2.401513 -2.732411 -1.987569
RightShoulder -1.577490 -9.243199 -28.455107
RightArm 7.340669 25.286071 26.559234
RightForeArm 5.210770 -0.000000 15.200206
RightHand 0.961128 -0.000000 8.580112
RightHandThumb1 -24.326973 -0.000000 -32.862282
LeftShoulder -19.127329 25.302407 18.027010
LeftArm 41.462215 -51.514935 -47.752227
LeftForeArm 44.018679 0.000000 3.354770
LeftHand -14.046067 -0.000000 -11.960375
LeftHandThumb1 -26.253704 0.000000 33.147579
Head 1.668248 10.296591 4.211597
